<svg width="638" height="442" viewBox="0 0 638 442" fill="none" xmlns="http://www.w3.org/2000/svg">
<g clip-path="url(#clip0_4_11)">
<path d="M311.506 335.234L241.474 363.375L154.783 147.396L213.979 123.61C219.963 121.206 226.762 124.111 229.165 130.097L311.506 335.234Z" fill="#F4A640"/>
<path d="M286.318 138.535L152.231 162.326L185.662 350.954L319.749 327.163L286.318 138.535Z" fill="#ADCFD8"/>
<path d="M252.449 163.855L192.573 174.478L192.811 175.823L252.688 165.199L252.449 163.855Z" fill="#55769F"/>
<path d="M264.424 158.211L179.389 173.299L179.627 174.643L264.662 159.556L264.424 158.211Z" fill="#55769F"/>
<path d="M276.597 174.136L173.43 192.441L173.669 193.785L276.835 175.48L276.597 174.136Z" fill="#55769F"/>
<path d="M277.744 180.606L174.578 198.911L174.816 200.255L277.983 181.951L277.744 180.606Z" fill="#55769F"/>
<path d="M280.036 193.542L176.87 211.846L177.108 213.191L280.275 194.886L280.036 193.542Z" fill="#55769F"/>
<path d="M281.184 200.012L178.018 218.316L178.256 219.661L281.423 201.356L281.184 200.012Z" fill="#55769F"/>
<path d="M282.329 206.48L179.163 224.784L179.401 226.129L282.567 207.824L282.329 206.48Z" fill="#55769F"/>
<path d="M287.373 234.932L184.206 253.236L184.445 254.581L287.611 236.276L287.373 234.932Z" fill="#55769F"/>
<path d="M288.561 241.643L185.394 259.947L185.633 261.292L288.799 242.987L288.561 241.643Z" fill="#55769F"/>
<path d="M289.75 248.348L186.584 266.653L186.822 267.997L289.988 249.693L289.75 248.348Z" fill="#55769F"/>
<path d="M290.937 255.057L187.77 273.362L188.009 274.706L291.175 256.402L290.937 255.057Z" fill="#55769F"/>
<path d="M292.129 261.766L188.962 280.07L189.201 281.415L292.367 263.11L292.129 261.766Z" fill="#55769F"/>
<path d="M293.316 268.474L190.15 286.778L190.388 288.123L293.554 269.818L293.316 268.474Z" fill="#55769F"/>
<path d="M294.505 275.18L191.339 293.485L191.577 294.829L294.743 276.525L294.505 275.18Z" fill="#55769F"/>
<path d="M267.007 133.856L135.304 168.534L184.033 353.808L315.737 319.131L267.007 133.856Z" fill="#DAEEF7"/>
<path d="M235.317 161.864L176.505 177.35L176.852 178.67L235.664 163.185L235.317 161.864Z" fill="#55769F"/>
<path d="M246.79 155.26L163.267 177.251L163.614 178.572L247.138 156.58L246.79 155.26Z" fill="#55769F"/>
<path d="M260.226 170.136L158.894 196.817L159.241 198.137L260.574 171.456L260.226 170.136Z" fill="#55769F"/>
<path d="M261.896 176.49L160.563 203.171L160.911 204.491L262.243 177.81L261.896 176.49Z" fill="#55769F"/>
<path d="M265.24 189.197L163.907 215.878L164.255 217.199L265.587 190.518L265.24 189.197Z" fill="#55769F"/>
<path d="M266.911 195.552L165.579 222.233L165.926 223.554L267.259 196.873L266.911 195.552Z" fill="#55769F"/>
<path d="M268.581 201.906L167.248 228.587L167.595 229.908L268.928 203.227L268.581 201.906Z" fill="#55769F"/>
<path d="M275.931 229.857L174.598 256.538L174.945 257.859L276.278 231.178L275.931 229.857Z" fill="#55769F"/>
<path d="M277.666 236.443L176.333 263.124L176.681 264.445L278.013 237.764L277.666 236.443Z" fill="#55769F"/>
<path d="M279.398 243.031L178.065 269.712L178.412 271.033L279.745 244.352L279.398 243.031Z" fill="#55769F"/>
<path d="M281.132 249.619L179.799 276.3L180.146 277.621L281.479 250.94L281.132 249.619Z" fill="#55769F"/>
<path d="M282.864 256.21L181.531 282.891L181.879 284.212L283.211 257.531L282.864 256.21Z" fill="#55769F"/>
<path d="M284.597 262.799L183.265 289.48L183.612 290.8L284.945 264.119L284.597 262.799Z" fill="#55769F"/>
<path d="M286.33 269.386L184.997 296.067L185.345 297.388L286.677 270.707L286.33 269.386Z" fill="#55769F"/>
<path d="M284.932 345.91L143.942 402.565L61.7094 197.695L180.185 124.57C186.843 120.46 195.596 123.344 198.513 130.609L284.932 345.91Z" fill="#FEB546"/>
<path d="M98.4447 369.411L78.3304 369.047C71.3465 356.385 66.2249 345.374 66.2249 345.374C88.9408 340.136 108.112 342.287 124.086 348.429L132.888 369.822L134.772 353.349C174.357 374.723 190.668 419.968 190.668 419.968C190.668 419.968 120.709 412.512 105.88 405.612C100.155 402.946 92.937 393.358 86.2359 382.592C91.5941 377.484 98.4447 369.411 98.4447 369.411Z" fill="#FF5B7E"/>
<path d="M66.2249 345.374C66.2249 345.374 156.042 383.193 190.665 419.968C190.665 419.968 120.707 412.512 105.877 405.612C100.152 402.946 92.9343 393.358 86.2332 382.592C91.5941 377.484 98.4448 369.411 98.4448 369.411L78.3304 369.047C71.3493 356.385 66.2249 345.374 66.2249 345.374Z" fill="#E03268"/>
<path d="M69.0902 405.818C81.1849 398.45 93.3856 394.506 105.192 392.934C108.653 397.239 112.902 402.301 112.902 402.301L113.35 392.207C158.654 390.143 196.195 420.514 196.195 420.514C169.955 437.06 147.574 441.624 129.237 440.145C128.15 436.614 126.614 431.345 126.614 431.345L123.376 439.454C114.587 438.08 106.831 435.336 100.133 431.985C101.848 427.78 103.656 422.971 103.656 422.971L93.8912 428.519C77.5258 418.512 69.0902 405.818 69.0902 405.818Z" fill="#FF5B7E"/>
<path d="M129.237 440.147C128.15 436.617 126.614 431.348 126.614 431.348L123.376 439.456C114.587 438.083 106.831 435.338 100.133 431.987C101.848 427.782 103.656 422.973 103.656 422.973L93.8912 428.522C77.5285 418.512 69.0929 405.818 69.0929 405.818C121.878 399.717 196.195 420.517 196.195 420.517C169.953 437.063 147.571 441.624 129.237 440.147Z" fill="#E03268"/>
<path d="M333.433 133.53L349.647 121.616C348.043 107.244 345.876 95.2949 345.876 95.2949C324.305 104.135 309.888 116.965 300.39 131.207L305.544 153.759L294.502 141.396C274.507 181.709 287.289 228.077 287.289 228.077C287.289 228.077 340.116 181.587 348.244 167.386C351.384 161.902 351.745 149.907 351.006 137.243C343.682 136.168 333.433 133.53 333.433 133.53Z" fill="#02CCC0"/>
<path d="M345.876 95.2949C345.876 95.2949 294.349 178.048 287.292 228.077C287.292 228.077 340.118 181.587 348.247 167.386C351.387 161.902 351.748 149.907 351.009 137.243C343.685 136.168 333.433 133.533 333.433 133.533L349.647 121.619C348.043 107.244 345.876 95.2949 345.876 95.2949Z" fill="#06BFAD"/>
<path d="M378.406 146.306C364.278 147.274 352.042 151.101 341.491 156.634C341.149 162.147 340.6 168.735 340.6 168.735L334.412 160.752C296.228 185.229 283.092 231.711 283.092 231.711C314.064 230.071 334.975 220.869 349.092 209.072C347.942 205.561 346.159 200.371 346.159 200.371L353.483 205.123C359.868 198.924 364.618 192.206 368.152 185.599C364.324 183.156 360.075 180.273 360.075 180.273L371.251 179.166C378.841 161.546 378.406 146.306 378.406 146.306Z" fill="#02CCC0"/>
<path d="M349.095 209.075C347.945 205.564 346.162 200.374 346.162 200.374L353.485 205.126C359.871 198.927 364.62 192.208 368.154 185.602C364.327 183.159 360.078 180.276 360.078 180.276L371.254 179.169C378.841 161.546 378.406 146.309 378.406 146.309C331.783 171.811 283.095 231.716 283.095 231.716C314.067 230.074 334.975 220.872 349.095 209.075Z" fill="#06BFAD"/>
<path d="M508.017 205.259H517.659C516.083 204.179 514.109 203.535 511.961 203.535H270.424C257.788 203.535 247.542 212.619 247.542 223.828V236.719C247.542 247.925 257.785 257.012 270.424 257.012L509.259 256.939L508.017 205.259Z" fill="#E03268"/>
<path d="M267.803 236.719V223.828C267.803 212.619 278.046 203.535 290.685 203.535H285.498C272.862 203.535 262.616 212.619 262.616 223.828V236.719C262.616 247.925 272.859 257.012 285.498 257.012L290.617 257.01C278.011 256.977 267.803 247.906 267.803 236.719Z" fill="#FEB546"/>
<path d="M324.37 236.719V223.828C324.37 212.619 334.613 203.535 347.252 203.535H342.065C329.429 203.535 319.183 212.619 319.183 223.828V236.719C319.183 247.925 329.426 257.012 342.065 257.012L347.184 257.01C334.578 256.977 324.37 247.906 324.37 236.719Z" fill="#FEB546"/>
<path d="M370.889 203.581C358.803 203.581 349.008 212.268 349.008 222.988V237.556C349.008 248.276 358.805 256.964 370.889 256.964H521.253V253.705H520.631L482.406 250.495L474.68 223.614C474.68 223.614 489.591 208.757 490.564 208.376C491.537 207.993 520.631 206.831 520.631 206.831L521.253 206.826V203.581H370.889Z" fill="#FF5B7E"/>
<path d="M511.502 230.177C511.502 214.458 520.661 206.839 520.661 206.839H373.972C362.872 206.839 353.874 214.82 353.874 224.666V235.881C353.874 245.724 362.872 253.708 373.972 253.708H520.661C520.658 253.705 511.502 249.968 511.502 230.177Z" fill="#DAEEF7"/>
<path d="M353.871 224.666V235.881C353.871 237.355 354.078 238.786 354.456 240.157C359.403 229.421 368.886 219.079 386.937 215.756C429.079 207.993 520.658 206.842 520.658 206.842H373.969C362.87 206.839 353.871 214.823 353.871 224.666Z" fill="#DAEEF7"/>
<path d="M504.04 312.15H514.952C513.166 310.798 510.934 309.99 508.503 309.99H235.129C220.827 309.99 209.233 321.362 209.233 335.392V351.527C209.233 365.557 220.827 376.929 235.129 376.929L505.445 376.839L504.04 312.15Z" fill="#284C7A"/>
<path d="M348.839 310.05C335.162 310.05 324.074 320.927 324.074 334.342V352.577C324.074 365.992 335.162 376.869 348.839 376.869H519.021V372.789H518.317L475.052 368.769L466.307 335.12C466.307 335.12 483.183 316.526 484.284 316.047C485.385 315.569 518.314 314.113 518.314 314.113L519.019 314.105V310.05H348.839Z" fill="#55769F"/>
<path d="M507.984 343.34C507.984 323.666 518.35 314.13 518.35 314.13H352.327C339.765 314.13 329.579 324.12 329.579 336.442V350.477C329.579 362.799 339.762 372.789 352.327 372.789H518.35C518.347 372.792 507.984 368.111 507.984 343.34Z" fill="#DAEEF7"/>
<path d="M329.576 336.442V350.477C329.576 352.321 329.81 354.114 330.239 355.827C335.839 342.388 346.569 329.446 366.999 325.284C414.695 315.569 518.347 314.127 518.347 314.127H352.324C339.762 314.13 329.576 324.12 329.576 336.442Z" fill="#DAEEF7"/>
<path d="M200.223 258.59H189.306C191.092 257.518 193.326 256.876 195.757 256.876H469.237C483.545 256.876 495.145 265.901 495.145 277.032V289.835C495.145 300.968 483.545 309.99 469.237 309.99L198.815 309.919L200.223 258.59Z" fill="#02CCC0"/>
<path d="M355.483 256.923C369.166 256.923 380.26 265.553 380.26 276.199V290.667C380.26 301.313 369.168 309.944 355.483 309.944H185.233V306.707H185.938L229.219 303.519L237.967 276.82C237.967 276.82 221.083 262.066 219.982 261.685C218.881 261.305 185.938 260.151 185.938 260.151L185.233 260.146V256.928H355.483V256.923Z" fill="#06BFAD"/>
<path d="M196.276 283.337C196.276 267.727 185.908 260.16 185.908 260.16H351.996C364.563 260.16 374.752 268.086 374.752 277.864V289C374.752 298.778 364.563 306.704 351.996 306.704H185.908C185.908 306.707 196.276 302.994 196.276 283.337Z" fill="#DAEEF7"/>
<path d="M374.752 277.864V289C374.752 290.463 374.518 291.886 374.089 293.246C368.486 282.583 357.751 272.312 337.313 269.01C289.597 261.299 185.905 260.157 185.905 260.157H351.993C364.563 260.16 374.752 268.086 374.752 277.864Z" fill="#DAEEF7"/>
<path opacity="0.5" d="M445.045 289.835V277.032C445.045 265.901 433.445 256.876 419.138 256.876H445.108C459.415 256.876 471.015 265.901 471.015 277.032V289.835C471.015 300.968 459.415 309.99 445.108 309.99L419.483 309.982C433.63 309.84 445.045 300.878 445.045 289.835Z" fill="#55769F"/>
<path d="M179.576 378.98H167.808C169.732 377.783 172.141 377.065 174.762 377.065H469.58C485.004 377.065 497.51 387.148 497.51 399.584V413.888C497.51 426.327 485.004 436.407 469.58 436.407L178.059 436.328L179.576 378.98Z" fill="#FEB546"/>
<path d="M346.95 377.12C361.701 377.12 373.659 386.762 373.659 398.656V414.821C373.659 426.716 361.701 436.358 346.95 436.358H163.42V432.744H164.179L210.836 429.18L220.267 399.35C220.267 399.35 202.067 382.864 200.879 382.44C199.691 382.016 164.179 380.726 164.179 380.726L163.42 380.721V377.125H346.95V377.12Z" fill="#F4A640"/>
<path d="M175.322 406.632C175.322 389.191 164.143 380.734 164.143 380.734H343.19C356.739 380.734 367.722 389.591 367.722 400.517V412.961C367.722 423.887 356.739 432.744 343.19 432.744H164.143C164.143 432.741 175.322 428.593 175.322 406.632Z" fill="#DAEEF7"/>
<path d="M367.722 400.517V412.961C367.722 414.596 367.472 416.184 367.007 417.705C360.969 405.791 349.394 394.315 327.363 390.627C275.923 382.013 164.143 380.737 164.143 380.737H343.19C356.739 380.734 367.722 389.591 367.722 400.517Z" fill="#DAEEF7"/>
<path d="M86.6899 220.314L182.681 165.381L195.656 191.093L97.4335 243.086L86.6899 220.314Z" fill="#F4A640"/>
<path d="M267.58 63.8381C267.58 63.8381 266.822 71.3072 260.931 71.824C266.822 72.3408 267.58 79.8099 267.58 79.8099C267.58 79.8099 268.339 72.3408 274.23 71.824C268.339 71.3072 267.58 63.8381 267.58 63.8381Z" fill="#02CCC0"/>
<path d="M124.681 95.4445C124.681 95.4445 124.004 102.125 118.736 102.587C124.004 103.05 124.681 109.73 124.681 109.73C124.681 109.73 125.358 103.05 130.627 102.587C125.358 102.125 124.681 95.4445 124.681 95.4445Z" fill="#FF5B7E"/>
<path d="M591.576 254.847C591.576 254.847 590.567 264.797 582.722 265.485C590.57 266.173 591.576 276.123 591.576 276.123C591.576 276.123 592.584 266.173 600.433 265.485C592.584 264.797 591.576 254.847 591.576 254.847Z" fill="#FF5B7E"/>
<path d="M56.8569 272C56.8569 272 55.8484 281.95 48 282.638C55.8484 283.326 56.8569 293.276 56.8569 293.276C56.8569 293.276 57.8655 283.326 65.7139 282.638C57.8628 281.95 56.8569 272 56.8569 272Z" fill="#02CCC0"/>
<path d="M27.5 110C27.5 110 26.3043 121.691 17 122.5C26.3043 123.309 27.5 135 27.5 135C27.5 135 28.6957 123.309 38 122.5C28.6924 121.691 27.5 110 27.5 110Z" fill="#FEB546"/>
<path d="M612.538 156.606C612.538 156.606 611.53 166.556 603.684 167.244C611.53 167.932 612.538 177.882 612.538 177.882C612.538 177.882 613.547 167.932 621.395 167.244C613.547 166.556 612.538 156.606 612.538 156.606Z" fill="#02CCC0"/>
<path d="M367.722 0.334229C367.722 0.334229 366.714 10.284 358.865 10.9721C366.714 11.6603 367.722 21.6101 367.722 21.6101C367.722 21.6101 368.731 11.6603 376.579 10.9721C368.731 10.284 367.722 0.334229 367.722 0.334229Z" fill="#FF5B7E"/>
<path d="M535.835 83.4275C535.835 83.4275 535.286 89.7107 531.021 90.1432C535.286 90.5784 535.835 96.8589 535.835 96.8589C535.835 96.8589 536.385 90.5757 540.647 90.1432C536.385 89.708 535.835 83.4275 535.835 83.4275Z" fill="#FEB546"/>
<path d="M191.494 389.604L178.241 390.276L176.564 429.613L169.784 432.88L170.11 434.313L172.63 434.909C172.63 434.909 180.783 434.77 181.028 434.77C181.273 434.77 182.953 432.915 182.953 432.915L182.7 432.591L184.054 431.672L191.494 389.604Z" fill="#FFC0BB"/>
<path d="M227.392 432.877C227.392 432.877 220.773 429.55 220.61 429.61L222.11 389.555L205.682 389.604L213.123 431.666L213.938 432.221C213.734 432.92 213.571 433.524 213.533 433.717C213.427 434.242 216.333 434.278 217.347 434.452C218.361 434.626 221.3 434.941 223.189 435.466C225.079 435.991 227.457 434.452 227.457 434.452L227.392 432.877Z" fill="#FFC0BB"/>
<path d="M227.835 281.484C225.922 276.507 224.062 278.479 220.61 272.459C220.06 271.502 219.666 270.264 219.389 269.122C218.562 265.708 216.768 262.591 214.112 260.296C206.017 253.3 196.858 256.406 196.858 256.406C196.858 256.406 199.234 269.927 199.688 272.669C197.665 275.424 195.624 278.237 195.624 278.237C195.624 278.237 191.364 300.462 198.049 302.336C204.736 304.21 205.951 301.202 209.216 299.638C212.481 298.071 215.67 302.347 220.547 299.371C224.274 297.097 222.382 291.429 224.353 290.365C226.324 289.302 229.899 286.856 227.835 281.484Z" fill="#FF5500"/>
<path d="M193.389 267.62C193.269 267.569 190.206 265.839 187.335 264.218L205.16 244.364C205.16 244.364 199.759 243.317 199.43 243.276C199.101 243.236 191.356 245.648 191.356 245.648L183.369 247.813C177.274 270.066 169.684 274.094 169.681 274.097C168.765 274.706 167.897 275.519 167.022 276.936C163.996 281.832 167.057 284.898 168.797 286.31C170.537 287.721 167.626 292.941 170.866 295.865C175.11 299.695 179.033 296.083 181.952 298.229C184.872 300.375 185.508 303.554 192.427 302.953C199.345 302.352 199.277 279.722 199.277 279.722C199.277 279.722 193.612 267.721 193.389 267.62Z" fill="#FF5500"/>
<path d="M223.649 308.187C223.649 308.187 229.532 336.287 227.824 339.325C226.117 342.363 203.725 343.313 203.725 343.313L202.776 307.237L211.315 294.325L223.649 308.187Z" fill="#FF5B7E"/>
<path d="M216.548 340.715L212.364 329.245C212.364 329.245 198.592 324.226 197.717 324.164C196.842 324.104 185.185 329.245 185.185 329.245C185.185 329.245 181.621 336.464 180.925 337.758C180.539 338.476 181.428 342.894 182.297 346.691L177.358 346.922L174.077 419.445C174.077 419.445 181.188 423.278 188.846 419.992L195.137 356.646L200.607 355.825L208.814 418.624C208.814 418.624 215.379 423.55 224.679 419.445L218.516 349.558C218.25 346.539 217.587 343.566 216.548 340.715Z" fill="#07085B"/>
<path d="M189.765 285.796C189.765 285.796 195.874 284.514 207.243 285.322C218.609 286.13 201.985 292.538 201.985 292.538C201.985 292.538 196.151 292.348 195.901 292.302C195.648 292.253 189.765 285.796 189.765 285.796Z" fill="#FFC0BB"/>
<path d="M204.22 279.374H194.128V297.094H204.22V279.374Z" fill="#FFC0BB"/>
<path d="M204.203 282.401V276.357H194.128V281.498C196.298 282.665 199.508 283.337 204.203 282.401Z" fill="#F99893"/>
<path d="M218.34 259.645C217.375 259.169 216.254 259.254 215.24 259.768C215.588 250.637 208.148 242.958 198.774 243.282C189.401 242.958 181.96 250.637 182.308 259.768C181.294 259.254 180.174 259.169 179.209 259.645C177.358 260.559 176.782 263.176 177.923 265.493C179.065 267.808 181.49 268.945 183.341 268.031C183.6 267.903 183.828 267.743 184.035 267.555C185.095 275.103 191.388 280.761 198.772 280.657C206.155 280.764 212.449 275.103 213.509 267.555C213.715 267.743 213.944 267.906 214.202 268.031C216.053 268.945 218.478 267.808 219.62 265.493C220.767 263.176 220.191 260.559 218.34 259.645Z" fill="#FFC0BB"/>
<path d="M194.612 263.01C194.653 263.774 194.069 264.43 193.305 264.471C192.541 264.512 191.886 263.927 191.845 263.162C191.804 262.398 192.389 261.743 193.152 261.702C193.919 261.661 194.572 262.246 194.612 263.01Z" fill="#333333"/>
<path d="M206.544 263.141C206.585 263.905 206 264.56 205.236 264.601C204.472 264.642 203.817 264.057 203.776 263.293C203.736 262.529 204.32 261.873 205.084 261.832C205.848 261.789 206.503 262.376 206.544 263.141Z" fill="#333333"/>
<path d="M196.135 260.173C195.441 259.931 194.781 259.743 194.123 259.626C193.468 259.509 192.818 259.48 192.185 259.548C191.554 259.624 190.921 259.752 190.314 260.026L190.078 260.113C189.999 260.143 189.928 260.189 189.852 260.225L189.387 260.451C189.077 260.606 188.787 260.804 188.441 260.959C188.626 260.646 188.838 260.339 189.083 260.059C189.355 259.811 189.605 259.515 189.934 259.327C190.548 258.878 191.315 258.628 192.081 258.544C192.853 258.462 193.642 258.582 194.343 258.87C195.042 259.161 195.681 259.586 196.135 260.173Z" fill="#FF5500"/>
<path d="M201.719 260.151C202.167 259.561 202.803 259.131 203.496 258.832C204.195 258.541 204.981 258.413 205.756 258.489C206.525 258.568 207.292 258.813 207.909 259.256C208.24 259.441 208.493 259.735 208.765 259.983C209.012 260.26 209.224 260.568 209.412 260.878C209.067 260.725 208.776 260.529 208.463 260.377L207.998 260.157C207.919 260.124 207.849 260.078 207.77 260.048L207.533 259.961C206.925 259.692 206.291 259.567 205.66 259.496C205.027 259.433 204.38 259.469 203.722 259.591C203.07 259.711 202.412 259.907 201.719 260.151Z" fill="#FF5500"/>
<path d="M199.459 261.114C199.391 261.843 199.443 262.572 199.579 263.293C199.647 263.655 199.745 264.014 199.886 264.37C200.033 264.724 200.21 265.08 200.533 265.387C200.903 265.673 201.063 265.757 201.167 266.016C201.275 266.241 201.226 266.53 201.11 266.804C200.851 267.365 200.256 267.784 199.606 268.094C200.321 268.061 201.112 267.773 201.58 267.074C201.808 266.734 201.933 266.255 201.787 265.801C201.634 265.333 201.365 265.167 201.074 264.936C200.816 264.729 200.65 264.438 200.484 264.109C200.329 263.812 200.223 263.481 200.098 263.157C199.873 262.493 199.674 261.808 199.459 261.114Z" fill="#F99893"/>
<path d="M194.914 269.81C195.297 270.074 195.692 270.313 196.105 270.517C196.513 270.729 196.934 270.914 197.366 271.064C198.231 271.363 199.131 271.548 200.039 271.551C200.946 271.556 201.846 271.369 202.692 271.029C203.535 270.678 204.315 270.175 205.038 269.592C204.717 269.93 204.372 270.245 203.997 270.528C203.624 270.811 203.214 271.045 202.792 271.257C202.366 271.458 201.914 271.616 201.452 271.72C200.987 271.82 200.514 271.869 200.039 271.872C199.087 271.864 198.146 271.657 197.279 271.292C196.415 270.931 195.599 270.441 194.914 269.81Z" fill="#F99893"/>
<path d="M218.796 289.34C213.329 284.03 205.769 285.156 205.769 285.156C204.924 286.002 204.078 286.641 203.241 287.117C202.042 287.727 200.539 288.254 198.864 288.298C198.834 288.298 198.804 288.301 198.774 288.298C198.744 288.298 198.715 288.295 198.685 288.298C197.01 288.254 195.504 287.727 194.308 287.117C193.471 286.639 192.625 286.002 191.78 285.156C191.78 285.156 184.219 284.03 178.753 289.34C173.286 294.649 167.816 306.364 167.816 306.364C167.816 306.364 174.732 312.672 181.324 313.477C181.324 313.477 184.54 328.282 185.185 329.248C185.185 329.248 188.504 330.806 193.329 331.622C195.085 331.957 196.812 332.095 198.467 332.104C198.57 332.106 198.671 332.104 198.774 332.106C198.878 332.106 198.981 332.106 199.082 332.104C200.737 332.095 202.463 331.957 204.22 331.622C209.045 330.806 212.364 329.248 212.364 329.248C213.009 328.282 216.225 313.477 216.225 313.477C222.817 312.672 229.733 306.364 229.733 306.364C229.733 306.364 224.266 294.649 218.796 289.34Z" fill="#02CCC0"/>
<path d="M199.364 325.252C199.364 325.252 201.395 324.915 202.515 326.408L202.436 330.251L199.954 331.407C199.954 331.407 196.88 328.788 197.111 328.723C197.342 328.657 199.364 325.252 199.364 325.252Z" fill="#E03268"/>
<path d="M205.685 350.36L172.981 359.828L169.811 335.873L202.515 326.408L205.685 350.36Z" fill="#E03268"/>
<path d="M170.282 355.974L173.152 358.4L204.453 349.422L201.64 326.848L199.432 325.921L170.282 355.974Z" fill="#DAEEF7"/>
<path d="M204.453 349.422L202.221 347.48L198.138 342.992L198.386 330.64L199.432 325.921L201.651 326.81L204.453 349.422Z" fill="#DAEEF7"/>
<path d="M202.221 347.48L169.518 356.945L166.661 334.717L199.364 325.252L202.221 347.48Z" fill="#FF5B7E"/>
<path d="M186.174 300.628C185.416 301.552 184.722 302.513 184.089 303.505C183.458 304.501 182.89 305.532 182.431 306.609C181.966 307.683 181.612 308.801 181.414 309.952C181.213 311.105 181.191 312.286 181.33 313.474C180.963 312.335 180.854 311.1 180.982 309.892C181.099 308.682 181.447 307.501 181.917 306.386C182.403 305.276 183.012 304.224 183.733 303.258C184.442 302.292 185.247 301.389 186.174 300.628Z" fill="#DAEEF7"/>
<path d="M179.389 341.031C173.631 331.277 176.295 319.409 178.573 312.849C174.052 311.391 169.866 308.1 168.384 306.854C159.193 327.616 174.759 345.383 174.759 345.383L174.789 345.353C175.085 346.022 175.303 346.62 175.303 346.62C178.973 353.257 179.133 353.151 179.397 353.058C179.66 352.963 178.935 349.808 179.258 349.816C179.582 349.824 181.898 353.627 182.069 353.271C182.238 352.914 180.528 349.142 180.778 349.079C181.028 349.014 183.208 352.718 183.689 352.397C184.171 352.079 181.642 348.103 182.126 348.005C182.61 347.907 185.095 352.047 185.486 351.685C185.815 351.38 183.148 346.683 182.292 345.195C182.181 345.004 182.33 344.765 182.55 344.779C185.957 344.977 186.231 344.792 186.166 344.414C186.12 344.145 182.031 342.238 179.389 341.031Z" fill="#FFC0BB"/>
<path d="M217.91 286.195C210.853 311.611 219.373 319.11 219.408 319.306L218.133 325.219C218.133 325.219 200.751 313.912 211.769 283.783C212.079 282.937 213 282.493 213.819 282.872L217.116 284.4C217.793 284.716 218.111 285.475 217.91 286.195Z" fill="#E03268"/>
<path d="M233.319 348.263C233.319 348.263 233.096 347.7 232.884 347.034C232.884 347.031 232.884 347.028 232.886 347.025H232.884L232.552 344.561C232.345 338.974 231.418 319.162 228.368 307.504C226.047 309.348 221.118 312.832 216.333 313.458C219.332 319.733 225.612 334.195 226.702 347.344C225.595 349.852 224.106 353.32 224.233 353.526C224.426 353.834 224.736 353.793 227.025 351.511C227.175 351.364 227.428 351.437 227.471 351.644C227.797 353.238 228.858 358.245 229.282 358.254C229.785 358.264 228.947 353.766 229.355 353.532C229.76 353.298 230.467 357.704 231.008 357.628C231.549 357.552 230.771 353.556 230.986 353.445C231.204 353.333 232.359 357.084 232.702 357.231C233.047 357.378 232.299 353.224 232.525 353.015C232.75 352.805 234.218 355.498 234.463 355.4C234.705 355.302 234.884 355.275 233.319 348.263Z" fill="#FFC0BB"/>
<path d="M179.405 259.548C179.405 259.548 178.383 240.652 199.43 239.403C199.43 239.403 198.774 257.967 182.308 259.768L181.039 257.301L179.405 259.548Z" fill="#FF5500"/>
<path d="M199.43 239.403C199.43 239.403 216.502 238.446 217.407 259.36C217.407 259.36 216.167 259.27 215.243 259.768C215.243 259.768 201.721 256.384 198.367 243.274L199.43 239.403Z" fill="#FF5500"/>
<path d="M175.534 434.313C172.103 434.658 170.483 433.91 169.784 432.877L167.46 434.395C166.538 434.982 166.954 436.41 168.047 436.41H183.148C183.681 436.41 184.113 435.978 184.113 435.444V431.362C183.143 432.363 180.857 433.78 175.534 434.313Z" fill="#07085B"/>
<path d="M221.645 434.313C225.076 434.658 226.696 433.91 227.395 432.877L229.719 434.395C230.641 434.982 230.225 436.41 229.132 436.41H214.028C213.495 436.41 213.063 435.978 213.063 435.444V431.362C214.036 432.363 216.322 433.78 221.645 434.313Z" fill="#07085B"/>
<path d="M537.581 299.045L555.031 300.445L549.398 314.57L540.59 313.863L536.923 325.635C536.028 325.227 535.37 324.917 535.237 324.83C534.971 324.653 533.998 318.811 533.141 313.292L537.581 299.045Z" fill="#DAEEF7"/>
<path d="M547.539 428.925V435.08C547.539 435.589 547.949 435.999 548.455 435.999H562.817C563.855 435.999 564.252 434.637 563.377 434.076L555.319 428.922C555.319 428.925 552.16 431.245 547.539 428.925Z" fill="#E03268"/>
<path d="M519.348 168.039C519.138 168.12 518.918 167.938 518.964 167.718C519.323 166.009 520.421 160.624 520.008 160.433C519.516 160.208 518.418 164.995 517.918 165.052C517.417 165.109 518.608 160.466 518.043 160.311C517.477 160.153 516.537 164.424 516.273 164.44C516.012 164.456 516.477 160.27 516.2 159.976C515.922 159.685 514.881 164.095 514.571 164.206C514.261 164.318 513.968 161.035 513.682 161.026C513.397 161.018 513.209 160.967 511.755 168.544C511.755 168.544 511.668 171.322 511.178 171.974L512.271 174.208L515.658 174.319C515.658 174.319 523.02 167.655 522.958 167.25C522.901 166.864 522.577 166.774 519.348 168.039Z" fill="#FFC0BB"/>
<path d="M554.221 169.717C554.37 169.885 554.648 169.823 554.707 169.605C555.167 167.919 556.643 162.626 557.097 162.645C557.638 162.667 556.434 167.429 556.852 167.709C557.271 167.99 558.328 163.314 558.902 163.431C559.476 163.548 558.369 167.78 558.595 167.913C558.82 168.047 560.313 164.108 560.694 163.975C561.074 163.842 559.989 168.24 560.218 168.482C560.443 168.721 562.2 165.933 562.458 166.058C562.713 166.181 562.906 166.222 560.748 173.631C560.748 173.631 559.56 176.141 559.698 176.947L557.709 178.434L554.642 176.99C554.642 176.99 551.127 167.701 551.364 167.369C551.592 167.051 551.921 167.116 554.221 169.717Z" fill="#FFC0BB"/>
<path d="M527.294 230.405L527.348 243.361L514.767 241.421L516.866 226.853L527.294 230.405Z" fill="#FFC0BB"/>
<path opacity="0.6" d="M515.9 233.558L516.866 226.85L527.305 231.632L527.31 234.189C524.795 234.806 520.087 235.356 515.9 233.558Z" fill="#FC8D84"/>
<path d="M504.564 428.242V434.993C504.564 435.551 504.113 436.002 503.556 436.002H487.758C486.614 436.002 486.179 434.509 487.144 433.894L496.006 428.242C496.006 428.242 499.483 430.782 504.564 428.242Z" fill="#E03268"/>
<path d="M490.137 313.55C490.17 312.106 486.413 316.363 486.483 315.21C487.957 291.238 534.767 311.336 534.767 311.336L546.193 319.725L559.092 430.82C559.092 430.82 552.089 432.85 547.481 431.19L518.915 335.99L515.403 334.639C515.403 334.641 499.78 323.734 490.137 313.55Z" fill="#07085B"/>
<path d="M486.356 318.112C486.345 318.438 486.337 318.773 486.328 319.113C486.337 318.77 486.345 318.438 486.356 318.112Z" fill="#06BFAD"/>
<path d="M486.483 315.21C486.467 315.468 486.453 315.737 486.44 316.012C486.451 315.74 486.467 315.468 486.483 315.21Z" fill="#06BFAD"/>
<path d="M486.489 309.764C496.134 319.948 515.406 334.641 515.406 334.641L504.545 430.826C504.545 430.826 496.806 432.3 492.383 429.904C492.38 429.901 485.858 338.346 486.489 309.764Z" fill="#07085B"/>
<path d="M548.833 431.566C549.142 431.628 549.461 431.68 549.781 431.721C549.461 431.683 549.145 431.631 548.833 431.566Z" fill="#06BFAD"/>
<path d="M552.701 431.83C551.896 431.862 551.073 431.851 550.265 431.775C551.073 431.849 551.896 431.86 552.701 431.83Z" fill="#06BFAD"/>
<path d="M546.193 319.728L548.033 335.582C543.162 337.47 531.287 339.486 522.341 319.904C519.519 313.727 518.793 309.283 519.315 306.092C527.884 308.385 534.77 311.339 534.77 311.339L546.193 319.728Z" fill="#050645"/>
<path d="M503.243 255.011C503.784 255.011 511.891 236.623 511.891 236.623C518.826 241.489 528.24 238.111 528.24 238.111C528.24 238.111 566.12 307.466 540.715 318.28C515.313 329.095 491.352 315.939 491.352 315.939C491.352 315.939 485.948 301.879 485.948 301.338C485.948 300.796 502.702 255.011 503.243 255.011Z" fill="#DAEEF7"/>
<path d="M552.606 177.137C552.606 177.137 554.248 210.041 551.165 216.074C540.941 236.082 528.24 238.111 528.24 238.111C528.24 238.111 523.871 308.097 527.473 324.86C527.473 324.86 539.454 328.557 557.11 320.263C557.11 320.263 543.599 266.005 544.32 259.156C544.32 259.156 565.94 239.868 566.661 217.156C567.381 194.444 561.436 174.254 561.436 174.254L552.606 177.137Z" fill="#55769F"/>
<path d="M494.324 322.339C494.324 322.339 495.675 296.292 501.62 271.594C507.565 246.9 511.888 236.623 511.888 236.623C503.914 227.835 505.241 219.893 505.943 209.584C506.753 197.687 518.374 173.892 518.374 173.892L510.537 168.754C472.972 213.909 493.783 249.87 493.783 249.87C493.783 249.87 479.731 299.621 477.838 314.764C477.841 314.766 485.317 319.094 494.324 322.339Z" fill="#55769F"/>
<path d="M543.956 259.082C543.504 258.761 542.969 258.272 542.447 257.646C540.854 255.723 540.027 253.558 539.456 251.137C539.802 252.171 540.726 255.174 542.672 257.456C543.545 258.451 544.005 258.789 544.429 259.061C544.361 259.123 544.323 259.159 544.323 259.159C544.317 259.205 544.314 259.251 544.312 259.3C543.812 259.403 542.933 259.433 541.457 258.628C540.538 258.147 539.813 257.548 539.054 256.904C539.552 257.257 540.576 258 541.544 258.454C542.216 258.786 543.203 259.134 543.956 259.082Z" fill="white"/>
<path d="M494.071 249.707C494.715 249.299 495.272 248.714 495.786 248.126C497.379 246.255 498.255 244.041 499.002 241.808C498.434 244.215 497.613 246.385 496.012 248.317C495.49 248.94 494.962 249.426 494.503 249.753C494.854 249.777 495.278 249.709 495.561 249.63C496.025 249.513 496.482 249.342 496.917 249.127C497.82 248.703 498.711 248.072 499.407 247.577C498.736 248.148 497.964 248.798 497.004 249.301C496.569 249.538 496.107 249.736 495.623 249.881C495.134 250.003 494.636 250.109 494.082 249.96L493.793 249.881L494.071 249.707Z" fill="white"/>
<path d="M509.248 203.964L508.487 212.859L509.893 213.743L512.489 202.914L509.248 203.964Z" fill="#07085B"/>
<path d="M511.138 211.939C511.524 213.952 510.531 215.837 508.922 216.147C507.313 216.457 505.692 215.073 505.306 213.06C504.92 211.047 505.913 209.162 507.522 208.855C509.131 208.542 510.752 209.924 511.138 211.939Z" fill="#F99893"/>
<path d="M508.832 220.159C508.419 217.586 508.479 214.95 508.707 212.69C508.756 212.206 508.778 211.719 508.789 211.229C508.835 209.26 509.246 207.245 510.107 205.262C512.877 198.875 519.641 195.002 526.546 195.859C535.849 197.015 541.976 205.77 540.188 214.722C541.27 214.376 542.387 214.469 543.262 215.092C544.942 216.286 545.095 218.957 543.602 221.06C542.11 223.162 539.538 223.896 537.858 222.702C537.624 222.536 537.423 222.341 537.249 222.123C534.949 229.584 527.536 234.213 520.082 232.592C514.424 231.36 509.754 226.663 508.832 220.159Z" fill="#FFC0BB"/>
<path d="M526.03 213.049C525.665 213.968 526.329 214.961 527.334 214.959C527.884 214.956 528.389 214.608 528.593 214.096C528.96 213.174 528.297 212.179 527.286 212.184C526.739 212.187 526.231 212.538 526.03 213.049Z" fill="#333333"/>
<path d="M514.248 211.284C513.881 212.203 514.547 213.199 515.555 213.193C516.104 213.191 516.61 212.84 516.814 212.328C517.178 211.409 516.515 210.416 515.506 210.422C514.96 210.422 514.452 210.772 514.248 211.284Z" fill="#333333"/>
<path d="M524.195 222.735C523.463 223.1 522.642 223.369 521.971 223.499C521.204 223.649 520.421 223.695 519.655 223.589C518.888 223.486 518.151 223.219 517.477 222.83C516.808 222.433 516.21 221.914 515.669 221.334C516.221 222.109 516.719 222.561 517.366 223.012C518.034 223.45 518.747 223.733 519.619 223.867C520.424 223.973 521.245 223.913 522.02 223.712C522.795 223.502 523.542 223.187 524.195 222.735Z" fill="#F99893"/>
<path d="M524.91 210.237C525.63 210.109 526.31 210.027 526.978 210.016C527.644 210.005 528.289 210.076 528.903 210.245C529.512 210.419 530.116 210.647 530.67 211.012C531.426 211.442 531.97 211.969 532.364 212.23C532.111 211.591 531.706 210.832 531.149 210.386C530.613 209.848 529.898 209.478 529.156 209.274C528.408 209.07 527.612 209.064 526.878 209.236C526.149 209.415 525.451 209.731 524.91 210.237Z" fill="#07085B"/>
<path d="M519.407 209.331C519.057 208.678 518.499 208.153 517.863 207.751C517.222 207.353 516.466 207.103 515.691 207.057C514.922 207.013 514.128 207.133 513.448 207.473C512.78 207.718 512.149 208.311 511.709 208.83C512.203 208.7 512.823 208.39 513.704 208.221C514.345 208.052 514.992 208.031 515.626 208.061C516.262 208.099 516.895 208.237 517.521 208.46C518.149 208.681 518.766 208.977 519.407 209.331Z" fill="#07085B"/>
<path d="M521.808 211.077C521.158 211.686 520.565 212.347 520.003 213.033C519.44 213.721 518.915 214.442 518.45 215.212C518.184 215.674 517.85 216.289 517.771 216.814C517.725 217.105 517.749 217.388 518.233 217.864C518.551 218.201 518.91 218.476 519.277 218.728C519.649 218.976 520.033 219.207 520.435 219.395C519.763 218.818 519.084 218.244 518.551 217.583C518.467 217.483 518.304 217.243 518.247 217.11C518.217 217.012 518.268 216.797 518.339 216.615C518.483 216.234 518.69 215.853 518.913 215.484C519.35 214.736 519.848 214.012 520.334 213.28C520.835 212.557 521.329 211.828 521.808 211.077Z" fill="#F99893"/>
<path d="M510.904 194.472C510.904 194.472 506.236 193.571 511.986 190.751C517.735 187.93 531.834 186.287 539.204 192.606C539.204 192.606 541.683 189.423 543.909 190.821C546.136 192.219 541.59 193.764 541.59 193.764C541.59 193.764 544.703 194.365 545.301 196.093C545.744 197.371 543.841 196.993 542.819 196.707C544.51 197.404 549.485 202.104 543.026 214.942C541.881 214.406 534.49 203.856 534.49 203.856C534.49 203.856 519.63 208.741 522.338 204.688C522.338 204.688 505.021 209.045 509.218 201.193C509.216 201.195 502.833 200.235 510.904 194.472Z" fill="#07085B"/>
<path d="M543.023 214.945C543.023 214.945 541.903 214.085 540.19 214.722C538.478 215.358 537.388 219.202 537.388 219.202C537.388 219.202 531.779 223.796 534.514 203.771C537.2 184.097 540.922 207.046 540.922 207.046L543.023 214.945Z" fill="#07085B"/>
<path d="M504.616 152.763L502.191 152.524C502.615 152.292 503.126 152.178 503.667 152.23L564.429 158.208C567.607 158.521 569.961 161.062 569.684 163.88L569.366 167.122C569.088 169.943 566.285 171.974 563.108 171.662L503.028 165.732L504.616 152.763Z" fill="#E03268"/>
<path d="M564.266 166.621L564.584 163.379C564.861 160.559 562.509 158.021 559.329 157.708L560.634 157.836C563.812 158.149 566.166 160.689 565.889 163.507L565.571 166.749C565.293 169.57 562.49 171.602 559.313 171.289L558.024 171.161C561.196 171.466 563.988 169.437 564.266 166.621Z" fill="#FEB546"/>
<path d="M550.034 165.223L550.352 161.981C550.63 159.16 548.278 156.623 545.097 156.31L546.402 156.438C549.58 156.751 551.934 159.288 551.657 162.109L551.339 165.351C551.062 168.172 548.259 170.204 545.081 169.891L543.792 169.763C546.968 170.065 549.76 168.036 550.034 165.223Z" fill="#FEB546"/>
<path d="M539.152 155.736C542.191 156.035 544.442 158.464 544.176 161.16L543.814 164.824C543.551 167.519 540.87 169.464 537.831 169.165L500.005 165.444L500.087 164.625L500.245 164.641L509.939 164.78L512.546 158.208C512.546 158.208 509.161 154.101 508.927 153.982C508.694 153.862 501.403 152.847 501.403 152.847L501.248 152.831L501.329 152.015L539.152 155.736Z" fill="#FF5B7E"/>
<path d="M503.123 158.946C503.512 154.991 501.397 152.847 501.397 152.847L538.298 156.479C541.09 156.753 543.156 158.984 542.914 161.462L542.637 164.282C542.392 166.76 539.932 168.544 537.14 168.27L500.239 164.639C500.236 164.636 502.634 163.923 503.123 158.946Z" fill="#DAEEF7"/>
<path d="M542.912 161.459L542.634 164.28C542.599 164.649 542.509 165.006 542.382 165.34C541.403 162.517 539.272 159.68 534.813 158.399C524.404 155.404 501.394 152.847 501.394 152.847L538.296 156.479C541.09 156.753 543.156 158.984 542.912 161.459Z" fill="#DAEEF7"/>
<path d="M430.925 246.113L428.419 251.706C428.212 252.168 428.419 252.709 428.881 252.916L441.968 258.786C442.914 259.21 443.83 258.136 443.259 257.268L438.194 249.372C438.197 249.375 434.193 250.106 430.925 246.113Z" fill="#55769F"/>
<path d="M414.299 246.113L411.792 251.706C411.585 252.168 411.792 252.709 412.254 252.916L425.341 258.786C426.287 259.21 427.203 258.136 426.632 257.268L421.568 249.372C421.568 249.375 417.563 250.106 414.299 246.113Z" fill="#55769F"/>
<path d="M386.029 91.933L384.637 100.667L381.695 89.0226C381.695 89.0226 385.817 87.0206 385.999 87.7496C386.181 88.4758 386.029 91.933 386.029 91.933Z" fill="#07085B"/>
<path d="M362.639 110.728L361.366 125.827L374.682 125.19L373.146 111.822L362.639 110.728Z" fill="#FFC0BB"/>
<path d="M373.877 118.178L373.146 111.819L362.639 110.728L362.198 115.956C364.286 118.04 368.043 120.199 373.877 118.178Z" fill="#F99893"/>
<path d="M382.041 100.555C381.239 102.212 381.665 104.075 382.989 104.714C384.313 105.356 386.037 104.532 386.839 102.876C387.641 101.219 387.214 99.3558 385.89 98.7166C384.563 98.0774 382.843 98.8989 382.041 100.555Z" fill="#F99893"/>
<path d="M383.973 101.768C384.044 101.336 384.137 100.909 384.24 100.485C384.653 98.7656 384.765 96.9241 384.476 95.0038C383.552 88.8267 378.583 83.9008 372.398 83.0467C364.066 81.8934 356.728 88.0678 356.209 96.2414C355.353 95.692 354.363 95.5125 353.458 95.8498C351.726 96.4944 350.976 98.7765 351.783 100.944C352.591 103.112 354.649 104.344 356.383 103.7C356.622 103.61 356.843 103.485 357.044 103.338C357.31 110.339 362.668 116.07 369.505 116.388C372.849 116.546 375.962 115.379 378.376 113.337C381.663 110.921 383.324 105.794 383.973 101.768Z" fill="#FFC0BB"/>
<path d="M373.602 97.2043C373.629 98.0203 373.635 98.8145 373.678 99.5952C373.73 100.357 373.812 101.173 374.119 101.711C374.429 102.147 374.676 102.424 374.684 102.957C374.703 103.496 374.418 103.98 374.064 104.274C373.339 104.886 372.395 104.943 371.615 104.752C372.412 104.611 373.173 104.339 373.616 103.819C373.822 103.561 373.958 103.273 373.909 103.001C373.877 102.701 373.784 102.642 373.423 102.141C373.167 101.706 373.086 101.265 373.037 100.838C372.996 100.411 373.004 99.995 373.042 99.5816C373.121 98.7656 373.295 97.9659 373.602 97.2043Z" fill="#F99893"/>
<path d="M368.875 98.0829C368.965 98.9288 368.22 99.6115 367.385 99.4402C366.866 99.3341 366.461 98.888 366.406 98.3603C366.319 97.5171 367.062 96.8398 367.893 97.0058C368.413 97.1118 368.818 97.5579 368.875 98.0829Z" fill="#333333"/>
<path d="M379.496 99.2851C379.583 100.128 378.841 100.806 378.009 100.64C377.49 100.536 377.085 100.09 377.028 99.5626C376.938 98.7166 377.683 98.0366 378.517 98.2053C379.034 98.3114 379.442 98.7602 379.496 99.2851Z" fill="#333333"/>
<path d="M366.798 106.697C367.124 106.98 367.464 107.244 367.823 107.478C368.176 107.717 368.546 107.935 368.929 108.12C369.693 108.49 370.503 108.759 371.34 108.86C372.175 108.966 373.026 108.892 373.842 108.675C374.657 108.446 375.435 108.071 376.169 107.616C375.369 108.288 374.711 108.623 373.915 108.914C373.078 109.194 372.24 109.287 371.3 109.183C370.422 109.069 369.573 108.775 368.812 108.34C368.054 107.905 367.358 107.361 366.798 106.697Z" fill="#F99893"/>
<path d="M370.441 95.4771C369.807 95.2813 369.215 95.1317 368.625 95.0419C368.038 94.9522 367.461 94.9358 366.901 95.0038C366.344 95.0773 365.781 95.1997 365.243 95.4445C364.83 95.5723 363.827 96.1626 363.566 96.2795C363.873 95.7138 364.319 95.1099 364.868 94.7754C365.414 94.3592 366.099 94.1226 366.792 94.0355C367.488 93.9512 368.201 94.0546 368.834 94.3075C369.459 94.5605 370.036 94.944 370.441 95.4771Z" fill="#07085B"/>
<path d="M375.91 96.0946C376.411 95.6512 377.052 95.3874 377.718 95.2541C378.387 95.129 379.105 95.167 379.773 95.3846C380.437 95.605 381.062 95.9722 381.519 96.4862C381.994 96.9214 382.312 97.6042 382.503 98.2162C382.266 98.0502 381.399 97.2778 381.018 97.071C380.537 96.7256 380.01 96.4971 379.477 96.3176C378.939 96.1408 378.371 96.0456 377.778 96.0211C377.183 95.9939 376.571 96.0238 375.91 96.0946Z" fill="#07085B"/>
<path d="M369.97 181.549C369.97 181.549 367.195 200.396 385.393 203.679C403.593 206.962 426.238 205.983 426.238 205.983L429.389 249.274L438.89 249.758C438.89 249.758 463.354 189.605 429.492 180.202L399.061 180.352L386.532 179.457C386.532 179.457 373.852 176.324 373.703 176.919C373.551 177.52 370.269 181.848 369.97 181.549Z" fill="#070852"/>
<path d="M353.246 181.649C353.246 181.649 350.47 200.496 368.668 203.779C386.869 207.062 409.514 206.083 409.514 206.083L412.665 249.375L422.166 249.859C422.166 249.859 446.63 189.706 412.768 180.303L382.337 180.453L369.807 179.558C369.807 179.558 357.128 176.424 356.979 177.02C356.826 177.618 353.542 181.949 353.246 181.649Z" fill="#10116B"/>
<path d="M376.169 119.805C376.169 119.805 388.698 121.396 391.882 123.983C395.065 126.569 410.381 164.581 410.381 164.581L397.65 179.509L370.598 179.707C370.598 179.707 350.31 190.653 337.579 180.303C324.848 169.953 331.414 133.932 338.773 126.172C346.132 118.412 359.259 118.611 359.259 118.611C359.259 118.611 371.196 126.969 376.169 119.805Z" fill="#FF5B7E"/>
<path d="M351.903 138.712C352.352 140.784 352.626 142.887 352.822 144.995C352.931 146.05 352.977 147.108 353.037 148.166C353.069 149.227 353.094 150.288 353.078 151.349C353.037 153.47 352.92 155.6 352.556 157.7C352.199 159.792 351.683 161.891 350.71 163.784C351.365 161.766 351.688 159.694 351.922 157.616C352.153 155.535 352.232 153.435 352.259 151.338C352.303 149.241 352.251 147.138 352.186 145.033C352.11 142.93 352.015 140.825 351.903 138.712Z" fill="white"/>
<path d="M389.397 137.319C389.971 140.401 390.577 143.474 391.191 146.54C391.819 149.602 392.472 152.66 393.214 155.695C393.948 158.731 394.761 161.744 395.745 164.701C396.239 166.178 396.789 167.636 397.436 169.05C398.072 170.468 398.827 171.841 399.839 173.041C398.686 171.964 397.841 170.601 397.077 169.227C396.335 167.835 395.696 166.388 395.144 164.913C394.581 163.442 394.097 161.943 393.641 160.439C393.2 158.929 392.795 157.409 392.417 155.886C392.058 154.357 391.713 152.823 391.403 151.286C391.104 149.744 390.811 148.204 390.563 146.654C390.055 143.559 389.655 140.444 389.397 137.319Z" fill="white"/>
<path d="M416.53 144.195C414.214 140.591 395.253 134.471 395.253 134.471C395.253 140.319 395.253 140.572 395.253 140.572L414.554 147.323L416.53 144.195Z" fill="#EDEDED"/>
<path d="M415.166 143.95L393.146 133.791V137.735L414.622 145.487L415.166 143.95Z" fill="white"/>
<path d="M413.942 143.95L390.699 135.151V141.951L413.709 145.487L413.942 143.95Z" fill="#EDEDED"/>
<path d="M416.53 143.257C416.53 143.257 421.011 132.771 422.846 130.595C422.846 137.493 420.059 146.167 420.059 146.167L416.53 143.257Z" fill="white"/>
<path d="M418.488 143.719L423.919 129.983V136.527L420.187 145.487L418.488 143.719Z" fill="#EDEDED"/>
<path d="M420.187 143.95L426.108 130.595V135.355L420.187 143.95Z" fill="white"/>
<path d="M420.187 185.101L427.652 172.236V131.085L420.187 143.95V185.101Z" fill="#26426E"/>
<path d="M385.792 178.886L412.224 185.101V143.95L385.792 137.735V178.886Z" fill="#55769F"/>
<path d="M412.224 143.95C414.554 142.835 419.428 143.229 420.187 143.95C419.787 146.303 412.817 146.765 412.224 143.95Z" fill="#E0E0E0"/>
<path d="M412.224 185.101C412.224 186.108 420.222 186.108 420.222 185.101V143.95C419.412 145.147 413.127 145.114 412.224 143.95V185.101Z" fill="#3A5782"/>
<path d="M395.693 170.908C395.614 170.277 390.832 169.575 389.076 169.483C387.744 169.415 378.92 169.118 375.919 168.982L376.139 169.755L376.093 173.166L375.6 175.426C378.235 175.592 384.672 175.845 386.012 176.112C387.804 176.465 390.908 177.817 390.908 177.817C390.908 177.817 392.2 177.523 390.558 176.813C389.239 176.245 388.315 175.364 387.923 174.923C387.698 174.67 387.943 174.221 388.106 174.265C392.575 175.437 393.034 175.63 393.034 175.63C393.034 175.63 398.286 175.6 393.064 174.42C389.932 173.712 388.81 173.299 388.532 172.948C388.413 172.799 388.625 172.29 388.815 172.276C391.528 172.108 396.397 173.071 395.062 172.44C393.975 171.925 390.55 171.362 389.217 171.148C389.136 171.134 389.003 170.639 389.367 170.606C391.955 170.397 395.766 171.493 395.693 170.908Z" fill="#FFC0BB"/>
<path d="M348.845 163.265C349.946 163.532 351.03 163.842 352.134 164.07C353.23 164.331 354.344 164.522 355.445 164.756C357.664 165.161 359.887 165.512 362.119 165.824C364.354 166.118 366.589 166.388 368.831 166.605C371.066 166.828 373.336 167.016 375.549 167.141L375.845 167.157L375.91 167.416C376.101 168.166 376.223 168.898 376.318 169.649C376.411 170.397 376.451 171.15 376.449 171.904C376.443 172.657 376.378 173.413 376.253 174.161C376.117 174.907 375.894 175.638 375.598 176.337L375.573 176.397L375.524 176.43L373.067 178.078C372.249 178.628 371.427 179.174 370.598 179.71C371.368 179.093 372.145 178.486 372.928 177.882L375.269 176.073L375.195 176.166C375.443 175.489 375.614 174.79 375.709 174.074C375.796 173.359 375.837 172.635 375.815 171.909C375.791 171.186 375.72 170.462 375.619 169.741C375.513 169.026 375.372 168.3 375.184 167.622L375.546 167.897C374.377 167.867 373.271 167.791 372.134 167.709C371.003 167.625 369.875 167.535 368.75 167.418C366.496 167.187 364.248 166.904 362.011 166.548C359.773 166.186 357.549 165.751 355.345 165.229C354.246 164.949 353.148 164.677 352.066 164.337C350.976 164.027 349.908 163.643 348.845 163.265Z" fill="white"/>
<path d="M386.295 83.6696C386.295 83.6696 390.473 83.8029 386.088 80.2696C381.703 76.7363 369.935 72.591 362.391 76.5758C362.391 76.5758 360.882 73.3662 358.702 74.1333C356.522 74.9003 360.121 77.1063 360.121 77.1063C360.121 77.1063 357.337 77.0165 356.487 78.3846C355.859 79.3938 357.563 79.44 358.496 79.3938C356.911 79.6631 350.832 83.5037 353.882 95.7655C354.967 95.5261 361.146 86.5637 361.146 86.5637C361.146 86.5637 375.274 94.419 373.877 88.1739C373.877 88.1739 388.516 97.3131 386.439 89.7651C386.439 89.7624 392.099 90.1786 386.295 83.6696Z" fill="#07085B"/>
<path d="M353.869 95.8416C353.869 95.8416 355.038 95.4309 356.296 96.4291C357.555 97.4274 357.416 100.939 357.416 100.939C357.416 100.939 363.421 104.815 362.788 88.416C362.114 70.9699 357.778 89.8141 357.778 89.8141L353.869 95.8416Z" fill="#07085B"/>
<path d="M288.676 422.897L291.182 428.489C291.389 428.952 291.182 429.493 290.72 429.7L277.633 435.57C276.687 435.994 275.771 434.92 276.342 434.052L281.406 426.156C281.404 426.158 285.408 426.893 288.676 422.897Z" fill="#07085B"/>
<path d="M305.634 422.233L308.14 427.826C308.347 428.288 308.14 428.829 307.678 429.036L294.591 434.906C293.643 435.33 292.729 434.256 293.3 433.388L298.365 425.492C298.365 425.492 302.369 426.226 305.634 422.233Z" fill="#07085B"/>
<path d="M320.931 241.139C320.931 241.139 306.667 238.731 301.882 254.676L307.79 263.521C307.79 263.521 320.178 258.759 320.227 258.294C320.276 257.829 320.931 241.139 320.931 241.139Z" fill="#FF5500"/>
<path d="M343.889 248.322C343.889 248.322 348.048 254.584 350.171 257.064C355.511 263.309 356.198 261.348 359.515 266.72C363.095 272.516 359.474 276.148 357.414 277.818C355.353 279.488 358.8 285.668 354.961 289.133C349.938 293.667 345.292 289.391 341.836 291.932C338.381 294.472 337.625 298.237 329.435 297.527C321.244 296.814 321.322 270.02 321.322 270.02C321.322 270.02 328.026 255.813 328.293 255.696C328.559 255.574 343.889 248.322 343.889 248.322Z" fill="#FF5500"/>
<path d="M301.882 254.676C301.882 254.676 301.393 259.594 299.767 262.425C295.679 269.552 293.477 267.218 291.209 273.109C288.763 279.469 292.998 282.366 295.331 283.625C297.663 284.884 295.423 291.597 299.835 294.29C305.612 297.815 309.385 292.751 313.251 294.606C317.117 296.461 318.558 300.021 326.477 297.802C334.393 295.582 329.35 269.266 329.35 269.266C329.35 269.266 320.129 256.55 319.846 256.485C319.564 256.417 301.882 254.676 301.882 254.676Z" fill="#FF5500"/>
<path d="M322.578 286.41C322.578 286.41 336.25 283.894 342.535 284.106C348.82 284.319 338.726 300.674 338.726 300.674L328.459 300.902C328.459 300.902 322.165 293.868 322.578 293.05C322.992 292.231 322.559 286.864 322.559 286.864L322.578 286.41Z" fill="#FFC0BB"/>
<path d="M334.768 273.357L338.376 284.308C338.376 284.308 335.236 290.803 325.62 288.001C325.62 288.001 326.719 285.733 325.245 281.063C323.742 276.289 334.768 273.357 334.768 273.357Z" fill="#FFC0BB"/>
<path opacity="0.6" d="M334.768 273.357L336.459 278.473C335.451 282.211 332.18 284.759 326.009 285.548C326.012 284.436 325.841 282.95 325.245 281.063C323.742 276.289 334.768 273.357 334.768 273.357Z" fill="#FC8D84"/>
<path d="M312.773 265.341C313.553 267.12 313.034 269.068 311.612 269.69C310.19 270.316 308.404 269.38 307.624 267.601C306.844 265.823 307.363 263.875 308.785 263.249C310.206 262.627 311.99 263.562 312.773 265.341Z" fill="#F99893"/>
<path d="M312.373 273.414C311.452 271.124 310.951 268.681 310.688 266.543C310.631 266.086 310.549 265.632 310.457 265.178C310.087 263.35 310.041 261.403 310.419 259.39C311.634 252.911 317.063 247.909 323.62 247.248C332.452 246.356 339.952 253.147 340.184 261.789C341.108 261.242 342.16 261.093 343.101 261.484C344.903 262.232 345.607 264.667 344.672 266.921C343.737 269.176 341.516 270.398 339.716 269.647C339.466 269.544 339.24 269.405 339.034 269.239C338.482 276.613 332.61 282.447 325.384 282.521C319.955 282.578 314.613 279.287 312.373 273.414Z" fill="#FFC0BB"/>
<path d="M321.801 262.132C322.086 262.945 322.233 263.796 322.282 264.664C322.307 265.099 322.296 265.537 322.236 265.986C322.168 266.432 322.065 266.892 321.782 267.335C321.453 267.756 321.282 267.895 321.233 268.235C321.173 268.526 321.309 268.842 321.521 269.122C321.978 269.69 322.774 270.003 323.609 270.172C322.78 270.335 321.793 270.232 321.059 269.56C320.7 269.236 320.423 268.722 320.463 268.162C320.504 267.58 320.765 267.321 321.105 266.878C321.282 266.609 321.393 266.233 321.477 265.852C321.57 265.469 321.597 265.058 321.649 264.653C321.719 263.829 321.749 262.991 321.801 262.132Z" fill="#F99893"/>
<path d="M326.751 263.247C326.626 264.136 327.388 264.881 328.274 264.732C328.823 264.639 329.269 264.185 329.348 263.633C329.473 262.746 328.711 262.001 327.828 262.148C327.276 262.238 326.83 262.692 326.751 263.247Z" fill="#333333"/>
<path d="M315.505 264.098C315.38 264.985 316.138 265.727 317.022 265.586C317.574 265.496 318.019 265.042 318.098 264.49C318.226 263.6 317.465 262.855 316.579 263.002C316.027 263.089 315.581 263.546 315.505 264.098Z" fill="#333333"/>
<path opacity="0.3" d="M326.969 273.425C326.969 273.425 325.093 272.753 323.331 273.909C323.331 273.909 321.423 272.715 319.922 273.855C319.922 273.855 320.621 276.697 323.753 276.504C326.882 276.314 326.969 273.425 326.969 273.425Z" fill="#F99893"/>
<path d="M328.608 272.405C328.255 272.693 327.885 272.957 327.496 273.188C327.113 273.428 326.716 273.643 326.306 273.822C325.485 274.181 324.62 274.437 323.734 274.51C322.85 274.589 321.956 274.48 321.102 274.219C320.251 273.947 319.447 273.52 318.688 273.014C319.025 273.322 319.39 273.602 319.778 273.849C320.167 274.1 320.586 274.295 321.015 274.469C321.45 274.633 321.904 274.75 322.366 274.818C322.829 274.877 323.299 274.888 323.764 274.856C324.693 274.769 325.601 274.491 326.42 274.061C327.238 273.632 327.994 273.085 328.608 272.405Z" fill="#F99893"/>
<path d="M325.202 260.432C325.876 260.249 326.509 260.116 327.135 260.043C327.757 259.969 328.366 259.975 328.956 260.07C329.541 260.17 330.128 260.317 330.688 260.597C331.117 260.75 332.156 261.411 332.425 261.541C332.126 260.935 331.677 260.279 331.109 259.904C330.549 259.444 329.834 259.167 329.108 259.047C328.377 258.933 327.621 259.012 326.944 259.254C326.273 259.504 325.65 259.888 325.202 260.432Z" fill="#FF5500"/>
<path d="M319.409 260.869C318.898 260.383 318.234 260.078 317.536 259.915C316.834 259.757 316.076 259.768 315.364 259.972C314.657 260.179 313.98 260.54 313.482 261.065C312.963 261.506 312.602 262.21 312.376 262.852C312.631 262.689 313.577 261.906 313.985 261.704C314.507 261.359 315.073 261.139 315.641 260.967C316.214 260.801 316.818 260.723 317.446 260.72C318.071 260.717 318.718 260.772 319.409 260.869Z" fill="#FF5500"/>
<path d="M346.357 353.317C346.357 353.317 350.389 372.3 332.096 376.807C313.803 381.314 290.717 381.771 290.717 381.771L290.291 425.99L280.662 427.094C280.662 427.094 251.93 367.507 285.756 355.773L316.706 353.97L329.388 352.253C329.388 352.253 342.078 348.252 342.269 348.851C342.456 349.449 346.072 353.64 346.357 353.317Z" fill="#FFC0BB"/>
<path d="M363.367 352.343C363.367 352.343 367.399 371.326 349.106 375.833C330.813 380.34 307.727 380.8 307.727 380.8L307.3 425.019L297.671 426.123C297.671 426.123 268.939 366.536 302.766 354.802L333.716 352.999L346.398 351.282C346.398 351.282 359.088 347.281 359.278 347.88C359.469 348.475 363.084 352.667 363.367 352.343Z" fill="#FFC0BB"/>
<path d="M297.595 350.104C282.17 350.341 268.099 359.203 263.095 376.412C258.09 393.624 246.672 411.378 247.759 411.204C271.954 424.755 279.561 411.144 296.282 415.167C313.004 419.19 318.93 417.37 318.93 417.37C314.091 393.078 307.724 380.797 307.724 380.797C309.13 381.05 350.169 381.654 360.306 370.412C363.15 367.26 365.327 363.294 364.892 353.602C364.085 335.569 302.07 350.036 297.595 350.104Z" fill="#FEB546"/>
<path d="M302.195 382.067C302.722 381.972 303.25 381.882 303.769 381.76C304.291 381.64 304.805 381.499 305.313 381.346C305.569 381.268 305.824 381.18 306.077 381.088C305.813 381.034 305.558 380.957 305.302 380.865C304.799 380.688 304.329 380.432 303.889 380.141C303.462 379.829 303.059 379.489 302.706 379.1C302.353 378.713 302.048 378.289 301.779 377.846L302.304 378.414C302.491 378.591 302.665 378.776 302.861 378.939C303.233 379.287 303.652 379.578 304.079 379.842C304.508 380.103 304.965 380.313 305.435 380.479C305.903 380.636 306.409 380.753 306.874 380.77L307.73 380.8L306.971 381.153C306.455 381.393 305.944 381.55 305.416 381.697C304.892 381.844 304.359 381.948 303.826 382.04C303.291 382.127 302.755 382.203 302.217 382.241C301.678 382.282 301.14 382.307 300.602 382.304C301.135 382.23 301.668 382.165 302.195 382.067Z" fill="#DAEEF7"/>
<path d="M307.042 313.058C307.042 313.058 305.797 344.074 302.312 348.932L321.486 344.572V310.817L307.042 313.058Z" fill="#FFC0BB"/>
<path d="M314.787 317.293C314.787 317.293 317.878 325.1 318.362 329.248C319.566 339.545 318.259 346.808 316.127 352.669C313.14 360.892 336.263 357.764 336.821 357.775C361.255 358.357 361.029 357.359 361.029 357.359L364.93 354.225C364.387 344.18 362.997 335.493 363.215 326.536L363.438 317.293L362.318 307.95L327.73 305.224L314.787 317.293Z" fill="#FEB546"/>
<path d="M302.948 324.191C305.06 320.903 322.361 315.318 322.361 315.318C322.361 320.655 322.361 320.884 322.361 320.884L304.75 327.044L302.948 324.191Z" fill="#EDEDED"/>
<path d="M302.948 324.191C305.06 320.903 322.361 315.318 322.361 315.318C322.361 320.655 322.361 320.884 322.361 320.884L304.75 327.044L302.948 324.191Z" fill="#EDEDED"/>
<path d="M304.19 323.965L324.283 314.698V318.297L304.688 325.369L304.19 323.965Z" fill="white"/>
<path d="M305.308 323.965L326.515 315.939V322.143L305.522 325.369L305.308 323.965Z" fill="#EDEDED"/>
<path d="M302.948 323.334C302.948 323.334 298.859 313.768 297.185 311.782C297.185 318.076 299.727 325.989 299.727 325.989L302.948 323.334Z" fill="white"/>
<path d="M301.162 323.756L296.206 311.222V317.195L299.61 325.369L301.162 323.756Z" fill="#EDEDED"/>
<path d="M299.61 323.965L294.208 311.782V316.124L299.61 323.965Z" fill="white"/>
<path d="M299.61 361.512L294.654 350.096V312.552L299.61 323.965V361.512Z" fill="#F5577A"/>
<path d="M330.992 355.841L306.874 361.512V323.965L330.992 318.294V355.841Z" fill="#FF5B7E"/>
<path d="M306.874 323.965C304.748 322.948 300.3 323.307 299.61 323.965C299.974 326.114 306.333 326.536 306.874 323.965Z" fill="#E0E0E0"/>
<path d="M306.874 361.512C306.874 362.432 299.577 362.432 299.577 361.512V323.968C300.316 325.061 306.05 325.029 306.874 323.968V361.512Z" fill="#DE4B6C"/>
<path d="M370.68 309.313L354.263 316.92C354.263 316.92 352.985 337.932 352.194 338.863C350.759 340.546 336.201 345.366 328.535 346.778C327.301 347.004 326.031 346.906 324.848 346.49C321.045 345.146 314.314 342.728 313.254 342.366C311.587 341.8 306.884 340.691 306.577 341.245C306.292 341.762 310.239 342.151 312.561 343.304C312.887 343.468 312.582 343.881 312.501 343.862C311.185 343.568 307.792 342.826 306.594 342.902C305.12 342.997 310 343.9 312.46 345.059C312.631 345.14 312.642 345.693 312.476 345.788C312.088 346.011 310.894 345.981 307.722 345.48C302.432 344.648 307.303 346.617 307.303 346.617C307.303 346.617 307.801 346.607 312.389 347.17C312.558 347.191 312.618 347.697 312.316 347.85C311.791 348.111 310.606 348.589 309.171 348.633C307.385 348.685 308.477 349.435 308.477 349.435C308.477 349.435 311.862 349.327 313.659 349.658C315.002 349.906 321.081 352.049 323.59 352.868L323.9 352.482C327.379 353.292 359.45 355.637 363.343 346.117C370.5 328.614 370.68 309.313 370.68 309.313Z" fill="#FFC0BB"/>
<path d="M322.578 286.41C322.578 286.41 331.873 297.263 342.535 284.106C342.535 284.106 354.187 283.157 362.774 289.261C371.365 295.364 376.508 309.073 376.508 309.073C376.508 309.073 364.18 317.296 354.241 317.296L330.935 308.945L314.787 317.296C314.787 317.296 307.289 316.798 300.939 313.559C300.942 313.556 302.035 291.766 322.578 286.41Z" fill="#FEB546"/>
<path d="M351.408 304.925C351.808 306.272 352.17 307.629 352.528 308.986C353.197 311.652 353.814 314.192 354.265 316.92C355.108 316.959 356.057 316.836 356.889 316.716C361.374 315.917 364.321 314.66 368.317 313.025C374.304 310.297 373.496 310.561 376.508 309.073C373.004 311.29 371.118 312.291 368.565 313.567C365.066 315.191 361.722 316.692 357.014 317.522C354.956 317.802 354.363 317.742 353.583 317.652C353.279 315.65 352.931 313.602 351.976 309.117L351.088 305.01L350.171 300.902C350.615 302.232 351.009 303.579 351.408 304.925Z" fill="#07085B"/>
<path d="M314.469 307.449C314.197 308.85 314.012 310.7 314.075 312.427C314.105 313.232 314.7 315.487 315.385 317.772C315.257 317.821 315.13 317.867 315.002 317.916C314.208 315.618 313.526 313.314 313.439 312.476C313.229 310.746 313.374 309 313.664 307.303C313.991 305.592 314.42 303.998 315.07 302.347C315.687 300.747 316.416 299.192 317.329 297.744C316.72 299.338 316.165 300.94 315.673 302.553C315.184 304.172 314.755 305.801 314.469 307.449Z" fill="#07085B"/>
<path d="M340.181 261.792C340.181 261.792 324.22 257.94 316.595 247.087C316.595 247.087 316.462 237.205 331.115 239.447C345.351 241.625 348.684 255.487 340.181 261.792Z" fill="#FF5500"/>
</g>
<defs>
<clipPath id="clip0_4_11">
<rect width="638" height="442" fill="white"/>
</clipPath>
</defs>
</svg>
