<svg width="134" height="31" viewBox="0 0 134 31" fill="none" xmlns="http://www.w3.org/2000/svg">
<path d="M1.6 26V15.04L1.2 13.04L1.6 11.84H8.4C9.90667 11.84 11.1133 12.12 12.02 12.68C12.9267 13.24 13.38 14.1467 13.38 15.4C13.38 16.0267 13.2733 16.5933 13.06 17.1C12.8467 17.6067 12.54 18 12.14 18.28C13.0467 18.5733 13.7133 19.02 14.14 19.62C14.5667 20.22 14.78 20.9333 14.78 21.76C14.78 23.2133 14.3533 24.2867 13.5 24.98C12.66 25.66 11.4267 26 9.8 26H1.6ZM5.2 17.34H8.36C8.81333 17.34 9.14 17.2333 9.34 17.02C9.54 16.8067 9.64 16.5267 9.64 16.18C9.64 15.74 9.49333 15.44 9.2 15.28C8.90667 15.12 8.56 15.04 8.16 15.04H5.2V17.34ZM5.2 22.8H9.2C9.68 22.8 10.0333 22.74 10.26 22.62C10.5 22.5 10.6533 22.3467 10.72 22.16C10.8 21.9733 10.84 21.78 10.84 21.58C10.84 21.2333 10.7133 20.94 10.46 20.7C10.22 20.4467 9.86667 20.32 9.4 20.32H5.2V22.8ZM20.9911 26.2C19.3644 26.2 18.1044 25.8133 17.2111 25.04C16.3178 24.2667 15.8711 23.0133 15.8711 21.28C15.8711 19.5333 16.3178 18.28 17.2111 17.52C18.1044 16.7467 19.3644 16.36 20.9911 16.36C22.6578 16.36 23.9178 16.7467 24.7711 17.52C25.6378 18.28 26.0711 19.5333 26.0711 21.28C26.0711 23.0133 25.6378 24.2667 24.7711 25.04C23.9178 25.8133 22.6578 26.2 20.9911 26.2ZM20.9911 23.6C21.5378 23.6 21.9178 23.4 22.1311 23C22.3444 22.5867 22.4511 22.0133 22.4511 21.28C22.4511 20.5333 22.3444 19.96 22.1311 19.56C21.9178 19.16 21.5378 18.96 20.9911 18.96C20.4311 18.96 20.0378 19.16 19.8111 19.56C19.5978 19.96 19.4911 20.5333 19.4911 21.28C19.4911 22.0133 19.5978 22.5867 19.8111 23C20.0378 23.4 20.4311 23.6 20.9911 23.6ZM32.1825 26.2C30.5558 26.2 29.2958 25.8133 28.4025 25.04C27.5092 24.2667 27.0625 23.0133 27.0625 21.28C27.0625 19.5333 27.5092 18.28 28.4025 17.52C29.2958 16.7467 30.5558 16.36 32.1825 16.36C33.8492 16.36 35.1092 16.7467 35.9625 17.52C36.8292 18.28 37.2625 19.5333 37.2625 21.28C37.2625 23.0133 36.8292 24.2667 35.9625 25.04C35.1092 25.8133 33.8492 26.2 32.1825 26.2ZM32.1825 23.6C32.7292 23.6 33.1092 23.4 33.3225 23C33.5358 22.5867 33.6425 22.0133 33.6425 21.28C33.6425 20.5333 33.5358 19.96 33.3225 19.56C33.1092 19.16 32.7292 18.96 32.1825 18.96C31.6225 18.96 31.2292 19.16 31.0025 19.56C30.7892 19.96 30.6825 20.5333 30.6825 21.28C30.6825 22.0133 30.7892 22.5867 31.0025 23C31.2292 23.4 31.6225 23.6 32.1825 23.6ZM38.9739 26V15.04L38.5539 13.04L38.9739 11.84H42.5739V15.04L42.3539 20.22H43.1539L44.6939 16.56H48.7739V17.76L46.5539 21L48.0339 22.8L49.9139 24.82V26H46.0339L43.7739 22.7L42.5739 22.9V26H38.9739ZM56.3172 26.2C55.5839 26.2 54.8905 26.1333 54.2372 26C53.5839 25.8533 53.0172 25.68 52.5372 25.48C52.0572 25.28 51.7039 25.0933 51.4772 24.92V21.34C52.1172 21.7 52.9239 22.04 53.8972 22.36C54.8705 22.6667 55.9505 22.82 57.1372 22.82C57.6172 22.82 57.9705 22.76 58.1972 22.64C58.4372 22.5067 58.5572 22.28 58.5572 21.96C58.5572 21.6133 58.2905 21.3267 57.7572 21.1C57.2372 20.86 56.4105 20.5667 55.2772 20.22C54.3972 19.94 53.6439 19.6333 53.0172 19.3C52.4039 18.9533 51.9305 18.5267 51.5972 18.02C51.2772 17.5 51.1172 16.84 51.1172 16.04C51.1172 15.2133 51.3305 14.4667 51.7572 13.8C52.1839 13.1333 52.8505 12.6067 53.7572 12.22C54.6639 11.8333 55.8239 11.64 57.2372 11.64C57.6639 11.64 58.1172 11.66 58.5972 11.7C59.0905 11.7267 59.4839 11.7667 59.7772 11.82L62.0372 13.48L61.2572 15.92L56.5172 14.62C55.9705 14.62 55.5639 14.7333 55.2972 14.96C55.0439 15.1867 54.9172 15.46 54.9172 15.78C54.9172 16.1667 55.1372 16.4733 55.5772 16.7C56.0172 16.9267 56.6505 17.1533 57.4772 17.38C58.7839 17.74 59.7972 18.14 60.5172 18.58C61.2372 19.02 61.7439 19.52 62.0372 20.08C62.3305 20.6267 62.4772 21.2467 62.4772 21.94C62.4772 23.22 61.9639 24.2533 60.9372 25.04C59.9105 25.8133 58.3705 26.2 56.3172 26.2ZM67.9413 26.2C67.0346 26.2 66.3079 25.9333 65.7613 25.4C65.2146 24.8667 64.9413 24.1933 64.9413 23.38V19.02H63.4813V17.12L64.7413 16.14L66.1613 13.66H68.5213V16.56H71.3213V19.16H68.5213V23.44L71.3213 23.42V25.6C71.3213 25.6 71.1613 25.6533 70.8413 25.76C70.5346 25.8533 70.1279 25.9467 69.6213 26.04C69.1146 26.1467 68.5546 26.2 67.9413 26.2ZM77.5341 26.2C75.9074 26.2 74.6474 25.8133 73.7541 25.04C72.8607 24.2667 72.4141 23.0133 72.4141 21.28C72.4141 19.5333 72.8607 18.28 73.7541 17.52C74.6474 16.7467 75.9074 16.36 77.5341 16.36C79.2007 16.36 80.4607 16.7467 81.3141 17.52C82.1807 18.28 82.6141 19.5333 82.6141 21.28C82.6141 23.0133 82.1807 24.2667 81.3141 25.04C80.4607 25.8133 79.2007 26.2 77.5341 26.2ZM77.5341 23.6C78.0807 23.6 78.4607 23.4 78.6741 23C78.8874 22.5867 78.9941 22.0133 78.9941 21.28C78.9941 20.5333 78.8874 19.96 78.6741 19.56C78.4607 19.16 78.0807 18.96 77.5341 18.96C76.9741 18.96 76.5807 19.16 76.3541 19.56C76.1407 19.96 76.0341 20.5333 76.0341 21.28C76.0341 22.0133 76.1407 22.5867 76.3541 23C76.5807 23.4 76.9741 23.6 77.5341 23.6ZM84.3255 26V19.74L83.9055 17.74L84.3255 16.54H87.0455L87.4455 17C87.4455 17 87.5388 16.9467 87.7255 16.84C87.9121 16.72 88.1721 16.6067 88.5055 16.5C88.8521 16.3933 89.2521 16.34 89.7055 16.34C89.9721 16.34 90.2388 16.36 90.5055 16.4C90.7721 16.44 90.9788 16.4933 91.1255 16.56L92.4255 17.66L91.1255 20.22L88.4855 19.12L87.8855 19.32V26H84.3255ZM97.6164 26.2C96.5897 26.2 95.6764 26.0467 94.8764 25.74C94.0764 25.4333 93.4497 24.92 92.9964 24.2C92.5431 23.48 92.3164 22.5067 92.3164 21.28C92.3164 20.4 92.4631 19.6467 92.7564 19.02C93.0631 18.3933 93.4697 17.8867 93.9764 17.5C94.4831 17.1 95.0497 16.8133 95.6764 16.64C96.3031 16.4533 96.9497 16.36 97.6164 16.36C98.7631 16.36 99.6431 16.4733 100.256 16.7C100.883 16.9267 101.296 17.1067 101.496 17.24L102.496 20.42L102.096 21.66H95.8964C95.9897 22.1533 96.2364 22.5667 96.6364 22.9C97.0364 23.2333 97.6964 23.4 98.6164 23.4C99.3364 23.4 99.9564 23.32 100.476 23.16C100.996 23 101.403 22.86 101.696 22.74V25.42C101.296 25.6333 100.716 25.82 99.9564 25.98C99.2097 26.1267 98.4297 26.2 97.6164 26.2ZM95.9164 20.38L98.6764 19.98L98.4964 19.12C98.4031 19.0667 98.2631 19.0267 98.0764 19C97.9031 18.9733 97.7497 18.96 97.6164 18.96C97.2431 18.96 96.9297 19.04 96.6764 19.2C96.4364 19.36 96.2497 19.5533 96.1164 19.78C95.9964 19.9933 95.9297 20.1933 95.9164 20.38Z" fill="#07085B"/>
<path d="M132.769 12.0021C130.771 12.1201 126.8 12.5496 124.348 14.1115C124.179 14.2193 124.083 14.4109 124.083 14.6112V28.4187C124.083 28.857 124.544 29.134 124.932 28.9306C127.454 27.6094 131.102 27.2489 132.906 27.1502C133.521 27.1164 134 26.6026 134 25.9868V13.167C134 12.495 133.44 11.9626 132.769 12.0021ZM122.652 14.1115C120.201 12.5496 116.23 12.1205 114.232 12.0021C113.56 11.9626 113 12.495 113 13.167V25.9871C113 26.6034 113.479 27.1172 114.094 27.1506C115.899 27.2492 119.548 27.6101 122.071 28.9322C122.458 29.1352 122.917 28.8585 122.917 28.4214V14.6044C122.917 14.4037 122.821 14.2196 122.652 14.1115Z" fill="#050645"/>
<path d="M123.5 0C123.5 0 122.988 5.1442 119 5.5C122.988 5.85579 123.5 11 123.5 11C123.5 11 124.012 5.85579 128 5.5C124.011 5.1442 123.5 0 123.5 0Z" fill="#02CCC0"/>
</svg>
