<svg width="28" height="42" viewBox="0 0 28 42" fill="none" xmlns="http://www.w3.org/2000/svg">
<path d="M26.3584 19.2528C23.6944 19.405 18.3996 19.9589 15.131 21.9729C14.9054 22.1119 14.7775 22.359 14.7775 22.6173V40.4221C14.7775 40.9873 15.3915 41.3445 15.9092 41.0822C19.2722 39.3784 24.1358 38.9136 26.5407 38.7863C27.3617 38.7428 28 38.0803 28 37.2861V20.755C28.0005 19.8884 27.2538 19.2019 26.3584 19.2528ZM12.869 21.9729C9.60086 19.9589 4.30605 19.4054 1.64211 19.2528C0.74668 19.2019 0 19.8884 0 20.755V37.2866C0 38.0812 0.638275 38.7438 1.45933 38.7868C3.86514 38.9141 8.73119 39.3794 12.0942 41.0842C12.6104 41.346 13.2225 40.9892 13.2225 40.4256V22.6085C13.2225 22.3497 13.0951 22.1124 12.869 21.9729Z" fill="white"/>
<path d="M14.0002 0C14.0002 0 13.2451 7.58106 7.36855 8.1054C13.2451 8.62973 14.0002 16.2108 14.0002 16.2108C14.0002 16.2108 14.7554 8.62973 20.6319 8.1054C14.7534 7.58106 14.0002 0 14.0002 0Z" fill="#02CCC0"/>
</svg>
