<svg width="21" height="22" viewBox="0 0 21 22" fill="none" xmlns="http://www.w3.org/2000/svg">
<path d="M8 3C8 3 7.54458 7.67631 4 7.99999C7.54458 8.32368 8 13 8 13C8 13 8.45542 8.32368 12 7.99999C8.45542 7.67631 8 3 8 3Z" fill="#E03268"/>
<circle cx="8" cy="8" r="7.5" stroke="#55769F"/>
<path d="M15.7313 14.318L15.0493 13.5866L13.5866 14.9507L14.2687 15.682L15.7313 14.318ZM19.2687 21.0437C19.6453 21.4476 20.2781 21.4697 20.682 21.093C21.0859 20.7164 21.108 20.0836 20.7314 19.6797L19.2687 21.0437ZM14.2687 15.682L19.2687 21.0437L20.7314 19.6797L15.7313 14.318L14.2687 15.682Z" fill="#55769F"/>
</svg>
