<svg width="22" height="18" viewBox="0 0 22 18" fill="none" xmlns="http://www.w3.org/2000/svg">
<path d="M21.7236 2.08976C20.925 2.44475 20.0655 2.68419 19.1637 2.79135C20.0845 2.24014 20.7905 1.36701 21.1234 0.325437C20.2622 0.836523 19.3088 1.20738 18.2933 1.40758C17.4806 0.541513 16.3221 0 15.0402 0C12.5792 0 10.5838 1.9954 10.5838 4.4569C10.5838 4.80571 10.623 5.1457 10.6993 5.47246C6.99513 5.28637 3.71078 3.51234 1.51253 0.815797C1.12889 1.47373 0.909283 2.23925 0.909283 3.05681C0.909283 4.60286 1.69598 5.96723 2.89189 6.76627C2.16164 6.7429 1.47417 6.54225 0.873124 6.20844C0.872683 6.22696 0.872683 6.24592 0.872683 6.26488C0.872683 8.42388 2.40903 10.2248 4.44808 10.6349C4.07414 10.7363 3.68035 10.791 3.27377 10.791C2.98626 10.791 2.70712 10.7632 2.43504 10.7108C3.00258 12.4813 4.64828 13.7702 6.59826 13.8059C5.07294 15.0014 3.15162 15.714 1.06318 15.714C0.703791 15.714 0.348808 15.6929 0 15.6514C1.97291 16.9165 4.31535 17.6539 6.83197 17.6539C15.0301 17.6539 19.5126 10.8629 19.5126 4.97328C19.5126 4.78013 19.5086 4.58743 19.5002 4.39605C20.3707 3.76898 21.1265 2.98361 21.7236 2.08976Z" fill="white"/>
</svg>
